<svg xmlns="http://www.w3.org/2000/svg" viewBox="0 0 200 200">
  <defs>
    <linearGradient id="g" x1="0%" y1="0%" x2="100%" y2="100%">
      <stop offset="0%" stop-color="#B967FF"/>
      <stop offset="50%" stop-color="#FF71CE"/>
      <stop offset="100%" stop-color="#01CDFE"/>
    </linearGradient>
  </defs>

  <!-- Outer ring -->
  <circle cx="100" cy="100" r="94" fill="none" stroke="url(#g)" stroke-width="4"/>

  <!-- Pixel G letter -->
  <g fill="#05FFA1">
    <!-- Top bar -->
    <rect x="52" y="32" width="8" height="8"/><rect x="60" y="32" width="8" height="8"/>
    <rect x="68" y="32" width="8" height="8"/><rect x="76" y="32" width="8" height="8"/>
    <rect x="84" y="32" width="8" height="8"/><rect x="92" y="32" width="8" height="8"/>
    <rect x="100" y="32" width="8" height="8"/><rect x="108" y="32" width="8" height="8"/>
    <!-- Left side -->
    <rect x="44" y="40" width="8" height="8"/><rect x="44" y="48" width="8" height="8"/>
    <rect x="44" y="56" width="8" height="8"/><rect x="44" y="64" width="8" height="8"/>
    <rect x="44" y="72" width="8" height="8"/><rect x="44" y="80" width="8" height="8"/>
    <rect x="44" y="88" width="8" height="8"/><rect x="44" y="96" width="8" height="8"/>
    <rect x="44" y="104" width="8" height="8"/><rect x="44" y="112" width="8" height="8"/>
    <rect x="44" y="120" width="8" height="8"/><rect x="44" y="128" width="8" height="8"/>
    <rect x="44" y="136" width="8" height="8"/><rect x="44" y="144" width="8" height="8"/>
    <!-- Right side top -->
    <rect x="116" y="40" width="8" height="8"/><rect x="116" y="48" width="8" height="8"/>
    <rect x="124" y="40" width="8" height="8"/>
    <!-- Right side bottom -->
    <rect x="108" y="120" width="8" height="8"/><rect x="116" y="120" width="8" height="8"/>
    <rect x="116" y="128" width="8" height="8"/><rect x="108" y="128" width="8" height="8"/>
  </g>

  <!-- Pink accent on middle bar -->
  <g fill="#FF71CE">
    <rect x="52" y="88" width="8" height="8"/><rect x="60" y="88" width="8" height="8"/>
    <rect x="68" y="88" width="8" height="8"/><rect x="76" y="88" width="8" height="8"/>
    <rect x="84" y="88" width="8" height="8"/><rect x="92" y="88" width="8" height="8"/>
    <rect x="100" y="88" width="8" height="8"/>
  </g>

  <!-- Cyan accent pixels -->
  <g fill="#01CDFE">
    <rect x="52" y="40" width="8" height="8"/><rect x="60" y="40" width="8" height="8"/>
    <rect x="68" y="40" width="8" height="8"/><rect x="76" y="40" width="8" height="8"/>
    <rect x="84" y="40" width="8" height="8"/><rect x="92" y="40" width="8" height="8"/>
    <rect x="100" y="40" width="8" height="8"/><rect x="108" y="40" width="8" height="8"/>
  </g>

  <!-- Decorative corner pixels -->
  <rect x="160" y="24" width="6" height="6" fill="#FFFB96" opacity="0.8"/>
  <rect x="170" y="34" width="4" height="4" fill="#FF71CE" opacity="0.6"/>
  <rect x="26" y="164" width="5" height="5" fill="#01CDFE" opacity="0.7"/>
  <rect x="162" y="160" width="4" height="4" fill="#05FFA1" opacity="0.9"/>
</svg>
